<svg xmlns="http://www.w3.org/2000/svg" viewBox="0 0 800 600" width="100%" height="100%">
  <style>
    .primary { fill: #0071e3; }
    .secondary { fill: #f0f0f0; }
    .accent { fill: #4caf50; }
    .face-outline { fill: none; stroke: #333; stroke-width: 4; }
    .face-feature { fill: none; stroke: #333; stroke-width: 3; }
    .scan-line { fill: none; stroke: #0071e3; stroke-width: 3; stroke-dasharray: 10, 5; }
    .grid-line { fill: none; stroke: #e0e0e0; stroke-width: 1; }
  </style>
  
  <!-- Background elements -->
  <rect x="100" y="100" width="600" height="400" rx="20" class="secondary" />
  
  <!-- Grid lines -->
  <g class="grid">
    <line x1="100" y1="150" x2="700" y2="150" class="grid-line" />
    <line x1="100" y1="200" x2="700" y2="200" class="grid-line" />
    <line x1="100" y1="250" x2="700" y2="250" class="grid-line" />
    <line x1="100" y1="300" x2="700" y2="300" class="grid-line" />
    <line x1="100" y1="350" x2="700" y2="350" class="grid-line" />
    <line x1="100" y1="400" x2="700" y2="400" class="grid-line" />
    <line x1="100" y1="450" x2="700" y2="450" class="grid-line" />
    
    <line x1="150" y1="100" x2="150" y2="500" class="grid-line" />
    <line x1="200" y1="100" x2="200" y2="500" class="grid-line" />
    <line x1="250" y1="100" x2="250" y2="500" class="grid-line" />
    <line x1="300" y1="100" x2="300" y2="500" class="grid-line" />
    <line x1="350" y1="100" x2="350" y2="500" class="grid-line" />
    <line x1="400" y1="100" x2="400" y2="500" class="grid-line" />
    <line x1="450" y1="100" x2="450" y2="500" class="grid-line" />
    <line x1="500" y1="100" x2="500" y2="500" class="grid-line" />
    <line x1="550" y1="100" x2="550" y2="500" class="grid-line" />
    <line x1="600" y1="100" x2="600" y2="500" class="grid-line" />
    <line x1="650" y1="100" x2="650" y2="500" class="grid-line" />
  </g>
  
  <!-- Face outline -->
  <circle cx="400" cy="300" r="120" class="face-outline" />
  
  <!-- Face features -->
  <g class="face-features">
    <!-- Eyes -->
    <ellipse cx="350" cy="260" rx="20" ry="15" class="face-feature" />
    <ellipse cx="450" cy="260" rx="20" ry="15" class="face-feature" />
    
    <!-- Pupils -->
    <circle cx="350" cy="260" r="5" fill="#333" />
    <circle cx="450" cy="260" r="5" fill="#333" />
    
    <!-- Nose -->
    <path d="M400 270 L410 310 L390 310 Z" class="face-feature" />
    
    <!-- Mouth -->
    <path d="M360 350 Q400 380 440 350" class="face-feature" />
  </g>
  
  <!-- Scanning effect -->
  <line x1="280" y1="200" x2="520" y2="200" class="scan-line">
    <animate attributeName="y1" from="200" to="400" dur="2s" repeatCount="indefinite" />
    <animate attributeName="y2" from="200" to="400" dur="2s" repeatCount="indefinite" />
  </line>
  
  <!-- Feature points -->
  <g class="feature-points">
    <circle cx="350" cy="260" r="3" class="primary" />
    <circle cx="450" cy="260" r="3" class="primary" />
    <circle cx="400" cy="280" r="3" class="primary" />
    <circle cx="360" cy="350" r="3" class="primary" />
    <circle cx="380" cy="355" r="3" class="primary" />
    <circle cx="400" cy="358" r="3" class="primary" />
    <circle cx="420" cy="355" r="3" class="primary" />
    <circle cx="440" cy="350" r="3" class="primary" />
    <circle cx="320" cy="260" r="3" class="primary" />
    <circle cx="480" cy="260" r="3" class="primary" />
    <circle cx="335" cy="235" r="3" class="primary" />
    <circle cx="465" cy="235" r="3" class="primary" />
  </g>
  
  <!-- Recognition frame -->
  <rect x="250" y="150" width="300" height="300" rx="10" fill="none" stroke="#0071e3" stroke-width="4" stroke-dasharray="15 5">
    <animate attributeName="stroke-opacity" values="1;0.3;1" dur="2s" repeatCount="indefinite" />
  </rect>
  
  <!-- Status indicator -->
  <circle cx="620" cy="180" r="15" class="accent">
    <animate attributeName="opacity" values="0.5;1;0.5" dur="1.5s" repeatCount="indefinite" />
  </circle>
  
  <!-- Text labels -->
  <text x="580" cy="180" font-family="Arial" font-size="14" fill="#333" text-anchor="end">识别中...</text>
  
  <!-- Check marks -->
  <g transform="translate(180, 420)">
    <circle cx="0" cy="0" r="15" class="accent" />
    <path d="M-7,0 L-2,5 L7,-5" fill="none" stroke="white" stroke-width="3" stroke-linecap="round" stroke-linejoin="round" />
  </g>
</svg> 